<svg width="793" height="225" viewBox="0 0 793 225" fill="none" xmlns="http://www.w3.org/2000/svg">
<path d="M40.8 0.800018C24.6 7.60002 6.8 26.8 1.1 50.8C-6 81.3 23.6 94.2 26.1 90C29 85 20.8 83.4 19.1 67.5C16.9 47.1 26.4 24.2 38.4 14.2C40.6 12.3 40.5 14.9 40.5 19.7C40.5 28.3 40 105.2 40 121.2C40 142.9 39.1 149.8 37.5 156.6C35.9 163.5 33.2 168.1 35.2 169.9C37.4 171.9 46.9 167.1 52.4 159.5C59 150.3 61.3 139.3 61.7 127.3C62.2 112.8 62.2 89.9 62.2 76.8C62.2 64.8 62.4 29.7 62 8.60001C61.9 3.40001 47.5 -2.09998 40.8 0.800018ZM616.4 102.4C615.9 113.7 613.4 122.5 610.3 128.7C604.3 140.8 591.8 144.5 586.5 127.2C583.6 117.8 583.5 102 585.6 88.8C587.7 75.4 593.6 65.2 603.4 66.1C612.9 67.1 617.4 79.5001 616.4 102.4ZM454.2 172.5C454.1 191.3 451.1 207.7 444.8 212.5C435.8 219.3 423.7 214.2 426.2 200.5C428.4 188.4 438.9 176 454.2 160.9C454.2 160.9 454.2 164.3 454.2 172.5ZM451.7 102.3C451.2 112.6 448.5 122.9 445.6 128.8C439.6 140.9 427 144.6 421.8 127.3C418.2 115.4 419.1 100.1 420.9 90.4001C423.2 77.9001 428.7 66.2 438.7 66.2C448.3 66.2 453.1 76.8 451.7 102.3ZM357.7 102.2C357.1 113.1 355 122.2 351.6 128.8C345.4 140.8 333.2 144.6 327.8 127.3C323.9 114.8 325.2 97.8 326.9 88.6C329.3 75 335.3 65.3 344.7 66.2C354.3 67.1 358.9 79.5 357.7 102.2ZM788.4 114.9C786 114.9 785 117.3 784.1 121.4C781 135.6 777.8 138.8 773.6 138.8C768.9 138.8 764.7 131.8 763.7 117.7C762.9 106.6 763 86.3 764.1 66C764.3 61.8 763.2 57.7 752 53.7C747.2 52 740.2 49.4 736.7 57.8C726.9 81.5 723 100.3 722.1 108C722.1 108.4 721.6 108.5 721.5 107.6C720.9 101.5 719.6 90.4 719.5 67C719.5 62.4 718.5 58.6001 713.5 55.4001C710.2 53.3001 700.3 49.7 696.7 54C693.6 57.5 690 67.1001 686.3 78.4001C683.3 87.6001 681.2 93.8 681.2 93.8C681.2 93.8 681.2 69 681.3 59.6C681.3 56 678.9 54.9 678.1 54.6C674.8 53.6 668.3 52 665.5 52C662.1 52 661.3 53.9 661.3 56.7C661.3 57.1 660.8 89.4 660.8 112C660.8 113 660.8 114.1 660.8 115.2C658.9 125.6 652.8 139.7 646.1 139.7C639.4 139.7 636.3 133.8 636.3 106.9C636.3 91.2001 636.8 84.3 637 73C637.1 66.5 637.4 61.4 637.4 60.3C637.4 56.8 631.3 55.0001 628.5 54.4001C625.7 53.7001 623.2 53.5 621.3 53.6C618.6 53.8 616.7 55.5 616.7 58C616.7 59.3 616.7 61.8 616.7 61.8C613.2 56.3 607.6 52.5001 603.8 51.4001C593.7 48.4001 583.2 51.1 575.3 62.2C569 71 565.2 81.0001 563.7 95.4001C562.6 105.9 563 116.5 564.9 125.6C562.5 135.8 558.2 139.9 553.4 139.9C546.5 139.9 541.4 128.6 542 109C542.4 96.1 545 87.1 547.8 74C549 68.4 548 65.5 545.6 62.7C543.4 60.1 538.6 58.8001 531.7 60.4001C526.8 61.5001 519.8 62.8 513.4 63.7C513.4 63.7 513.8 62.2001 514.1 59.4001C515.8 45.1001 500.3 46.3001 495.3 50.9001C492.3 53.6001 490.3 56.8 489.6 62.6C488.4 71.8 495.9 76.1 495.9 76.1C493.5 87.3 487.4 102 481.3 112.5C478 118.2 475.4 122.4 472.2 126.8C472.2 125.1 472.2 123.5 472.2 121.8C472.1 98.2 472.4 79.7 472.6 73C472.7 66.5 473 61.6001 473 60.4001C473 57.8001 471.5 56.9 468.4 55.7C465.7 54.6 462.4 53.9 459 53.6C454.7 53.3 452.2 55.5 452.2 58.2C452.2 58.7 452.2 61.8 452.2 61.8C448.7 56.3 443.1 52.5001 439.3 51.4001C429.2 48.4001 418.7 51.1 410.8 62.2C404.5 71 400.4 83.4 399.2 95.3C398.1 106.4 398.3 115.8 399.8 123.7C398.2 131.6 393.6 139.9 388.4 139.9C381.7 139.9 377.9 134 377.9 107.1C377.9 91.4 378.4 84.5 378.6 73.2C378.7 66.7 379 61.6 379 60.5C379 57 372.9 55.2 370.1 54.6C367.2 53.9 364.6 53.7 362.7 53.8C360.1 54 358.3 56.3 358.3 58V62C354.8 56.5 349.2 52.7 345.4 51.6C335.3 48.6 324.8 51.3001 316.9 62.4001C311.7 69.6001 307.5 77.6 305.3 95.3C304.7 100.4 304.4 105.2 304.4 109.7C302.3 122.4 293.1 137.1 285.6 137.1C281.2 137.1 277 128.6 277 110.4C277 86.2001 278.5 51.7001 278.8 48.4001C278.8 48.4001 288.3 48.2 290.1 48.2C294.8 48.1 299.1 48.3001 305.4 47.9001C308.6 47.7001 311.6 36.4 308.3 35C306.8 34.4 296.4 33.8 292.2 33.7C288.7 33.6 279 32.9001 279 32.9001C279 32.9001 279.9 10 280.1 7.60001C280.3 5.60001 277.7 4.50005 276.2 3.90005C272.6 2.40005 269.3 1.60002 265.5 0.800018C260.2 -0.299982 257.8 0.800018 257.3 5.30002C256.6 12.1 256.2 32.1 256.2 32.1C252.3 32.1 238.9 31.3 235 31.3C231.4 31.3 227.4 46.9 232.5 47.1C238.3 47.3 248.3 47.5 255 47.7C255 47.7 254.7 82.7 254.7 93.6C254.7 94.8 254.7 95.9001 254.7 96.9001C251 116 238.1 126.4 238.1 126.4C240.9 113.7 235.2 104.2 225 96.2C221.2 93.2 213.8 87.6 205.5 81.5C205.5 81.5 210.3 76.8 214.6 67.2C217.6 60.4 217.8 52.7 210.3 51C198 48.2 187.9 57.2 184.9 66.8C182.6 74.3 183.8 79.8 188.4 85.5C188.7 85.9 189.1 86.3 189.5 86.8C186.7 92.1 182.9 99.3001 179.7 104.9C170.7 120.4 164 132.6 158.9 132.6C154.8 132.6 154.9 120.2 154.9 108.5C154.9 98.5 155.6 83.4 156.2 67.7C156.4 62.5 153.8 59.6001 149.5 56.9001C146.9 55.3001 141.3 52.1 138 52.1C133.1 52.1 119.1 52.8 105.8 91.2C104.1 96 100.8 104.9 100.8 104.9L101.1 58.7C101.1 57.6 100.5 56.6001 99.2 55.9001C97 54.7001 91 52.2 85.7 52.2C83.2 52.2 81.9 53.4 81.9 55.7L81 127.6C81 133.1 81.1 139.5 81.7 142.3C82.2 145.1 83.1 147.4 84.2 148.7C85.3 150.1 86.5 151.1 88.6 151.5C90.5 151.9 101.1 153.2 101.6 149.2C102.3 144.4 102.3 139.2 107.8 119.7C116.4 89.4 127.6 74.6001 132.9 69.4001C133.8 68.5001 134.9 68.4001 134.8 69.9001C134.6 76.5001 133.8 93.1 133.2 107.2C131.8 144.9 138.6 151.9 148.4 151.9C155.9 151.9 166.5 144.4 177.8 125.6C184.9 113.8 191.7 102.3 196.7 94C200.1 97.2 204 100.6 207.8 104.3C216.8 112.8 219.7 120.9 217.7 128.5C216.2 134.4 210.6 140.4 200.6 134.5C197.7 132.8 196.4 131.5 193.5 129.5C191.9 128.5 189.5 128.2 188.1 129.2C184.4 132 182.2 135.6 181 140.1C179.8 144.4 184.1 146.7 188.6 148.7C192.5 150.4 200.8 152 206.1 152.2C226.7 152.9 243.3 142.2 254.8 114.7C256.9 138.4 265.6 151.9 280.9 151.9C291.1 151.9 301.3 138.7 305.8 125.8C307.1 131.1 309 135.7 311.4 139.6C323.1 158.2 345.9 154.2 357.4 138.4C360.9 133.5 361.5 131.8 361.5 131.8C363.2 146.7 375.2 151.9 382.1 151.9C389.8 151.9 397.8 148.3 403.3 135.7C404 137.1 404.7 138.4 405.4 139.6C417.1 158.2 439.9 154.2 451.4 138.4C451.9 137.7 452.4 137 452.8 136.4L453.1 146.2C453.1 146.2 446.6 152.2 442.6 155.9C425 172.1 411.6 184.4 410.6 198.7C409.3 216.9 424.1 223.7 435.3 224.6C447.2 225.5 457.3 219 463.6 209.8C469.1 201.7 472.7 184.3 472.4 167.1C472.3 160.2 472.1 151.5 472 142.1C478.2 134.9 485.2 125.8 491.6 115.2C498.6 103.6 506.1 88.0001 510 75.9001C510 75.9001 516.5 76 523.5 75.5C525.7 75.4 526.4 75.8001 526 77.4001C525.5 79.4001 517.2 111.4 524.8 132.7C530 147.3 541.7 152 548.6 152C556.7 152 564.5 145.9 568.6 136.8C569.1 137.8 569.6 138.8 570.2 139.7C581.9 158.3 604.6 154.3 616.2 138.5C618.8 134.9 620.3 131.9 620.3 131.9C622.8 147.3 634.8 152.1 641.7 152.1C648.9 152.1 655.7 149.2 661.2 136.1C661.4 141.8 661.8 146.5 662.4 148C662.7 148.9 664.8 150 666.3 150.6C672.9 153 679.5 151.9 682 151.4C683.7 151.1 685 149.7 685.2 146.1C685.7 136.8 685.4 121.1 688.2 109.5C692.9 90 697.4 82.4 699.5 78.6C700.7 76.5 702 76.2001 702 78.4001C702.1 82.9001 702.3 96.1001 704.2 113.9C705.5 127 707.4 134.7 708.7 137.1C712.7 144.1 717.5 144.4 721.5 144.4C724 144.4 729.3 143.7 728.8 139.3C728.6 137.1 729 123.7 733.6 104.5C736.7 91.9 741.7 80.6001 743.6 76.4001C744.3 74.9001 744.6 76.1 744.6 76.3C744.2 85 743.3 113.3 746.9 128.7C751.7 149.7 765.5 152 770.3 152C780.6 152 789 144.2 791.8 123.6C792.5 118.7 791.5 114.9 788.4 114.9Z" fill="url(#paint0_linear_1_10)"/>
<defs>
<linearGradient id="paint0_linear_1_10" x1="-0.00479809" y1="112.328" x2="792.005" y2="112.328" gradientUnits="userSpaceOnUse">
<stop stop-color="#E2A937"/>
<stop offset="0.135" stop-color="#F47133"/>
<stop offset="0.6091" stop-color="#BC3081"/>
<stop offset="1" stop-color="#4C63D2"/>
</linearGradient>
</defs>
</svg>
